# xmcd
#
# Track frame offsets: 
#        150
#        18027
#        34242
#        51472
#        71860
#        88720
#        105592
#        122970
#        139437
#        152547
#        167757
#        188012
#        203155
#        219655
#        236080
#        251877
#        267710
#        281915
#        296740
#        321747
#
# Disc length: 4537 seconds
#
# Revision: 0
# Processed by: cddbd v1.5.2PL0 Copyright (c) Steve Scherf et al.
# Submitted via: ExactAudioCopy v0.99pb4
#
DISCID=4a11b714
DTITLE=Garfunkel, Art - Simply The Best
DYEAR=1998
DGENRE=Ballad
TTITLE0=Bright Eyes
TTITLE1=Break Away
TTITLE2=I Believe (When I Fall In Love It Will Be Forever)
TTITLE3=Disney Girls
TTITLE4=Miss You Nights
TTITLE5=She Moved Through The Fair
TTITLE6=Scissors Cut
TTITLE7=Since I Don't Have You
TTITLE8=Watermark
TTITLE9=What A Wonderful World
TTITLE10=When A Man Loves A Woman
TTITLE11=Looking For The Right One
TTITLE12=I Only Have Eyes For You
TTITLE13=Crying In The Rain
TTITLE14=Another Lullaby
TTITLE15=99 Miles From La
TTITLE16=A Heart In New York
TTITLE17=Saturday Suit
TTITLE18=Why Worry
TTITLE19=Crying In My Sleep
EXTD=
EXTT0=
EXTT1=
EXTT2=
EXTT3=
EXTT4=
EXTT5=
EXTT6=
EXTT7=
EXTT8=
EXTT9=
EXTT10=
EXTT11=
EXTT12=
EXTT13=
EXTT14=
EXTT15=
EXTT16=
EXTT17=
EXTT18=
EXTT19=
PLAYORDER=
